<svg xmlns="http://www.w3.org/2000/svg" width="22" height="28" fill="none" viewBox="0 0 22 28">
  <path fill="#000" d="M11.5 25.22a1 1 0 1 1 0 2 1 1 0 0 1 0-2Zm-4.408-.808c.567-.14 1.387-.131 2.067-.053.341.04.656.096.892.163.118.033.223.071.303.112.04.02.08.044.112.072a.27.27 0 0 1 .084.125l.052.175.02.028-.195.064c-.192.064-.495.147-.817.288-.322.142-.644.334-.865.602-.25.302-.383.53-.52.717-.132.18-.272.328-.508.359l-.016.002-.019-.002c-.178-.018-.339-.072-.438-.19-.108-.127-.111-.29-.058-.445.052-.152.163-.32.32-.497.16-.18.375-.378.643-.594l-.002-.002.01-.006c.135-.093.304-.177.487-.25-.395.061-.79.17-1.132.359-.514.284-.835.526-1.12.704-.28.174-.528.287-.839.228l-.016-.003-.016-.007c-.232-.101-.415-.236-.485-.418-.076-.198 0-.393.146-.56.146-.165.381-.327.693-.486a8.53 8.53 0 0 1 1.207-.483l.046.142-.046-.143.01-.001Zm7.37-.055c.68-.078 1.5-.088 2.067.053h.01l-.046.144.047-.142c.49.16.892.323 1.207.483.311.16.546.321.692.486.147.167.223.362.146.56-.07.182-.253.317-.485.418l-.016.007-.016.003c-.31.059-.56-.054-.838-.228-.286-.178-.607-.42-1.121-.704-.342-.189-.737-.298-1.132-.358.183.072.352.156.487.249l.01.006-.002.002c.268.216.484.415.643.594.157.178.268.345.32.497.053.155.05.318-.057.445-.1.118-.262.172-.439.19l-.019.002-.016-.002c-.236-.031-.376-.18-.508-.36-.137-.187-.27-.414-.52-.716-.22-.268-.543-.46-.865-.602-.322-.141-.625-.224-.817-.288l-.195-.064.02-.028.052-.175a.27.27 0 0 1 .084-.124.565.565 0 0 1 .112-.073c.08-.04.185-.079.303-.112.236-.067.551-.124.892-.163ZM9.895 6.539l1.956.03c.438-.005.876-.01 1.314-.017l1.79-.025a.49.49 0 0 1 .5.5l-.001.012c.162.164.285.366.345.59l.31 1.103c.074.255.072.53-.006.782l-.466 1.493a.658.658 0 0 0 .003.408l1.562 4.557c.124.354.078.761-.118 1.077l-3.52 5.698 1.584-1.957a3.91 3.91 0 0 0 .344-.502l2.237-3.888c.43-.748.582-1.64.43-2.47l-.695-3.948-.158-.9-.087-.492 1.017-.151.06.497.108.906.478 3.98a4.338 4.338 0 0 1-.66 2.88l-2.448 3.76a4.16 4.16 0 0 1-.4.52L13.1 23.5l-.64 1.037c-.402.72-1.566.695-1.934-.019l-.392-.68-3.022-3.22-.008-.01-1.491-1.879a1.237 1.237 0 0 1-.134-.213L4.48 16.53a4.336 4.336 0 0 1-.424-2.463l.508-4.22.11-.911.059-.497 1.017.151-.087.492-.16.905-.736 4.184c-.126.7-.042 1.444.247 2.108l.89 2.038a.77.77 0 0 0 .076.137L7.357 20.4l2.53 3.008-2.485-4.324-.902-1.57.945 1.545.596.975-1.716-3.053a1.27 1.27 0 0 1-.123-.923l1.144-4.651a.663.663 0 0 0-.012-.354l-.481-1.54a1.377 1.377 0 0 1-.008-.78l.31-1.102a1.38 1.38 0 0 1 .431-.672.492.492 0 0 1 .497-.45l1.812.03Zm-.002.95-1.696.018a.601.601 0 0 0-.29.347l-.341 1.093a.632.632 0 0 0-.008.357l.438 1.553c.067.234.067.486.004.72l-1.274 4.618a.74.74 0 0 0 .056.538l3.977 7.558c.23.501.964.597 1.363.238l.054-.068a.582.582 0 0 0 .042-.068l4.418-7.612a.736.736 0 0 0 .05-.624c-.562-1.504-1.124-3.01-1.687-4.513a1.349 1.349 0 0 1-.03-.835l.423-1.506a.628.628 0 0 0-.008-.355l-.34-1.095a.595.595 0 0 0-.264-.33l-1.615-.022-1.982-.027-1.29.015Zm-7.355 8.865c.565.144.83.563 1.08 1.154.255.602.5 1.392 1.016 2.425.483.965 1.332 1.698 2.197 2.254.865.557 1.726.924 2.236 1.179l.186.093-.147.147c-.103.103-.269.141-.435.152a3.031 3.031 0 0 1-.628-.04 9.838 9.838 0 0 1-1.71-.452c-1.252-.44-2.65-1.137-3.424-1.911l-.01-.01H2.9c-.629-.755-1.105-1.435-1.433-2.032-.326-.595-.512-1.116-.548-1.552-.035-.44.081-.803.367-1.053.28-.245.696-.358 1.214-.358h.018l.019.004Zm17.657-.004c.517 0 .934.113 1.214.357.285.25.4.615.365 1.054-.036.436-.22.957-.547 1.552-.328.597-.805 1.276-1.433 2.031l.001.001-.01.01c-.773.774-2.17 1.471-3.423 1.911a9.84 9.84 0 0 1-1.71.452 3.031 3.031 0 0 1-.629.04c-.166-.01-.33-.049-.434-.152l-.147-.147.186-.093c.51-.255 1.37-.623 2.236-1.179.864-.556 1.714-1.289 2.197-2.254.516-1.033.76-1.823 1.015-2.425.25-.591.516-1.01 1.082-1.154l.018-.004h.019ZM11.77.011c3.535.468 5.193 3.74 6.299 6.437.125.329.242.664.34 1l.05.17-.335.116-.068-.163c-.13-.301-.284-.62-.44-.923-1.34-2.535-3.21-5.371-5.92-5.64-.11-.009-.22-.01-.328-.007-2.79.258-4.831 3.187-6.448 5.7-.177.289-.36.6-.516.886l-.083.157L4 7.596l.063-.165c.126-.321.275-.65.424-.966C5.89 3.765 7.63.461 11.334.002c.144-.005.29-.002.437.01Z"/>
</svg>
